M48
;DRILL file {KiCad 201610010949+7276~55~ubuntu14.04.1-} date Wed Oct  5 10:29:31 2016
;FORMAT={-:-/ absolute / inch / decimal}
FMAT,2
INCH,TZ
T1C0.012
T2C0.024
T3C0.039
T4C0.043
%
G90
G05
M72
T1
X4.5611Y-3.0061
X4.5611Y-3.0539
X4.5611Y-3.1539
X4.5611Y-3.2061
X4.5611Y-3.2539
X4.5612Y-3.1055
X4.6969Y-3.3898
X4.74Y-3.365
X4.75Y-2.2
X4.75Y-2.445
X4.7795Y-3.8386
X4.7803Y-3.7492
X4.785Y-2.56
X4.7942Y-2.5836
X4.7943Y-2.6064
X4.8Y-2.35
X4.825Y-2.23
X4.825Y-2.54
X4.85Y-2.54
X4.85Y-2.35
X4.8525Y-2.605
X4.8656Y-3.8353
X4.875Y-2.54
X4.88Y-2.205
X4.8838Y-2.605
X4.9Y-2.35
X4.9Y-2.45
X4.9058Y-2.6049
X4.9094Y-3.8346
X4.928Y-2.6049
X4.9465Y-3.7291
X4.95Y-2.2
X4.95Y-2.45
X4.95Y-2.6993
X4.95Y-2.605
X4.955Y-3.75
X4.955Y-2.7392
X4.9606Y-3.9843
X4.9684Y-2.7811
X4.9684Y-2.82
X4.9684Y-3.7272
X4.9706Y-3.6898
X4.98Y-3.668
X4.9807Y-3.9016
X4.9819Y-3.4252
X4.9825Y-3.8796
X4.9827Y-3.45
X4.9838Y-3.49
X4.9838Y-3.51
X4.9843Y-2.76
X4.99Y-3.735
X4.9951Y-3.7872
X5.0019Y-3.6911
X5.012Y-3.9046
X5.0154Y-3.8782
X5.0237Y-3.6654
X5.024Y-3.694
X5.025Y-3.59
X5.026Y-2.7817
X5.0293Y-2.82
X5.0301Y-3.6149
X5.0318Y-3.4278
X5.0326Y-3.4508
X5.0394Y-3.7874
X5.0433Y-3.9055
X5.0467Y-3.8822
X5.0748Y-3.9055
X5.078Y-3.8836
X5.0827Y-4.0079
X5.0836Y-3.8219
X5.0855Y-2.7157
X5.0866Y-3.8386
X5.0866Y-3.8583
X5.1Y-2.3543
X5.105Y-2.585
X5.1102Y-4.0079
X5.1207Y-2.6943
X5.1222Y-2.3857
X5.125Y-2.3543
X5.125Y-2.445
X5.1298Y-2.7359
X5.1339Y-4.0079
X5.1417Y-3.8858
X5.1493Y-2.3541
X5.1493Y-2.545
X5.15Y-2.1993
X5.1733Y-2.3743
X5.1752Y-2.3524
X5.1994Y-2.545
X5.2Y-2.1993
X5.2Y-2.3543
X5.2008Y-2.4243
X5.205Y-3.705
X5.205Y-3.727
X5.2205Y-3.8937
X5.225Y-2.445
X5.2441Y-3.8937
X5.2448Y-2.7097
X5.2467Y-2.5854
X5.2488Y-4.043
X5.2493Y-2.4464
X5.2493Y-2.545
X5.2499Y-4.0117
X5.25Y-4.087
X5.25Y-2.2
X5.25Y-2.38
X5.25Y-2.415
X5.2503Y-4.065
X5.2514Y-4.109
X5.2598Y-3.7757
X5.2599Y-3.7442
X5.2602Y-3.5907
X5.2642Y-3.7108
X5.2677Y-3.8937
X5.2711Y-3.6561
X5.2743Y-2.1982
X5.275Y-2.3493
X5.2761Y-4.0355
X5.2821Y-2.575
X5.285Y-2.3907
X5.2893Y-2.599
X5.2911Y-3.7771
X5.2913Y-3.7442
X5.2913Y-3.8937
X5.2923Y-3.6622
X5.2923Y-3.6306
X5.295Y-2.2471
X5.2955Y-3.7113
X5.2994Y-2.1972
X5.3Y-2.35
X5.3193Y-2.2471
X5.325Y-2.1972
X5.3307Y-3.9528
X5.3308Y-2.3993
X5.331Y-3.9056
X5.3361Y-3.7231
X5.3367Y-3.7827
X5.3494Y-2.5445
X5.3498Y-2.1998
X5.3506Y-2.3493
X5.3514Y-3.4568
X5.3536Y-3.626
X5.3537Y-3.6717
X5.3543Y-3.604
X5.3583Y-4.0748
X5.37Y-2.235
X5.3701Y-3.4882
X5.371Y-3.4054
X5.3711Y-3.5183
X5.374Y-4.0551
X5.374Y-4.0748
X5.3877Y-3.0748
X5.3898Y-3.622
X5.394Y-2.22
X5.3944Y-3.38
X5.3984Y-3.3582
X5.4023Y-3.457
X5.4027Y-3.485
X5.42Y-2.355
X5.42Y-2.445
X5.42Y-2.5557
X5.4213Y-3.622
X5.4213Y-3.6535
X5.4213Y-3.7165
X5.4213Y-3.7795
X5.4213Y-3.8426
X5.4213Y-3.9055
X5.4213Y-3.9685
X5.425Y-2.22
X5.4252Y-3.1929
X5.4252Y-3.2165
X5.4261Y-2.242
X5.4331Y-4.0354
X5.4334Y-4.0748
X5.434Y-3.485
X5.434Y-3.457
X5.445Y-2.865
X5.445Y-3.029
X5.4457Y-4.1843
X5.446Y-2.23
X5.45Y-2.197
X5.451Y-2.6111
X5.4513Y-2.355
X5.4528Y-3.622
X5.4528Y-3.6535
X5.4528Y-3.685
X5.4528Y-3.748
X5.4528Y-3.8425
X5.4528Y-3.9055
X5.4528Y-3.937
X5.4528Y-3.9685
X5.4528Y-4.001
X5.4537Y-3.7165
X5.4576Y-3.2004
X5.4643Y-4.1843
X5.465Y-4.035
X5.465Y-4.075
X5.466Y-3.457
X5.466Y-3.484
X5.469Y-2.23
X5.4743Y-2.355
X5.475Y-2.197
X5.4754Y-2.5903
X5.482Y-3.373
X5.4843Y-3.1614
X5.4843Y-3.5906
X5.4843Y-3.622
X5.4843Y-3.6535
X5.4843Y-3.685
X5.4843Y-3.7165
X5.4843Y-3.748
X5.4843Y-3.7795
X5.4843Y-3.811
X5.4843Y-3.8425
X5.4843Y-3.874
X5.4843Y-3.9055
X5.4843Y-3.937
X5.4843Y-3.9685
X5.486Y-2.417
X5.491Y-3.397
X5.498Y-3.484
X5.499Y-3.327
X5.4993Y-2.6117
X5.5Y-3.236
X5.5Y-4.0354
X5.5Y-4.0748
X5.5Y-4.21
X5.5003Y-2.8622
X5.502Y-3.213
X5.5033Y-3.5236
X5.509Y-2.197
X5.51Y-2.368
X5.5112Y-2.9183
X5.5118Y-4.4606
X5.5157Y-3.5906
X5.5157Y-3.622
X5.5157Y-3.6535
X5.5157Y-3.685
X5.5157Y-3.7165
X5.5157Y-3.748
X5.5157Y-3.7795
X5.5157Y-3.811
X5.5157Y-3.8425
X5.5157Y-3.874
X5.5157Y-3.9055
X5.5157Y-3.937
X5.5157Y-3.9685
X5.5162Y-3.094
X5.517Y-2.4459
X5.5197Y-4.3976
X5.52Y-4.21
X5.5223Y-2.8992
X5.5248Y-3.4382
X5.526Y-3.213
X5.5315Y-2.8622
X5.5315Y-4.4606
X5.5346Y-3.4803
X5.5394Y-4.3976
X5.5396Y-3.3268
X5.5399Y-2.6111
X5.5429Y-2.8831
X5.544Y-3.233
X5.5469Y-3.811
X5.5471Y-2.2141
X5.5471Y-3.7796
X5.5472Y-3.7481
X5.5472Y-3.8425
X5.5472Y-3.5906
X5.5472Y-3.622
X5.5472Y-3.6535
X5.5472Y-3.685
X5.5472Y-3.7165
X5.5472Y-3.874
X5.5472Y-3.9055
X5.5472Y-3.937
X5.5472Y-3.9685
X5.548Y-3.068
X5.548Y-3.094
X5.5499Y-2.4269
X5.5512Y-4.437
X5.5527Y-2.5598
X5.5584Y-4.3976
X5.5584Y-4.4173
X5.5591Y-4.2598
X5.5591Y-4.2795
X5.5591Y-4.2992
X5.5591Y-4.3189
X5.5591Y-4.3386
X5.5591Y-4.3583
X5.5591Y-4.378
X5.563Y-2.8622
X5.563Y-3.3268
X5.563Y-3.3425
X5.5634Y-3.3739
X5.5638Y-3.3937
X5.5663Y-3.4888
X5.5709Y-2.748
X5.5709Y-2.7677
X5.5774Y-2.9146
X5.5775Y-2.4447
X5.578Y-2.53
X5.5787Y-3.9684
X5.5787Y-3.5906
X5.5787Y-3.622
X5.5787Y-3.6535
X5.5787Y-3.685
X5.5787Y-3.7165
X5.5787Y-3.748
X5.5787Y-3.7795
X5.5787Y-3.811
X5.5787Y-3.8425
X5.5787Y-3.874
X5.5787Y-3.9055
X5.5787Y-3.937
X5.58Y-4.155
X5.58Y-4.175
X5.5906Y-2.748
X5.5972Y-3.4777
X5.6Y-4.175
X5.6Y-2.196
X5.6Y-4.155
X5.6024Y-2.8976
X5.6024Y-2.9213
X5.61Y-4.353
X5.6101Y-4.2685
X5.6102Y-3.5906
X5.6102Y-3.622
X5.6102Y-3.6535
X5.6102Y-3.685
X5.6102Y-3.7165
X5.6102Y-3.748
X5.6102Y-3.7795
X5.6102Y-3.811
X5.6102Y-3.8425
X5.6102Y-3.874
X5.6102Y-3.9055
X5.6102Y-3.937
X5.6102Y-3.9685
X5.613Y-3.5599
X5.619Y-2.228
X5.6202Y-2.9811
X5.626Y-3.5079
X5.626Y-4.0394
X5.6289Y-2.5041
X5.629Y-3.072
X5.6299Y-2.748
X5.63Y-3.095
X5.635Y-2.1083
X5.6382Y-3.1406
X5.64Y-2.71
X5.64Y-4.075
X5.64Y-4.095
X5.6417Y-3.685
X5.6417Y-3.7165
X5.6417Y-3.748
X5.6417Y-3.7795
X5.6417Y-3.811
X5.6417Y-3.874
X5.6474Y-2.3924
X5.651Y-2.419
X5.651Y-2.9674
X5.6512Y-2.936
X5.652Y-2.913
X5.655Y-4.245
X5.6551Y-4.353
X5.6564Y-3.467
X5.659Y-2.302
X5.6602Y-3.2396
X5.6602Y-3.3268
X5.6602Y-3.3425
X5.67Y-2.1083
X5.6731Y-3.9379
X5.6732Y-3.5591
X5.6732Y-3.5906
X5.6732Y-3.6535
X5.6732Y-3.685
X5.6732Y-3.7165
X5.6732Y-3.748
X5.6732Y-3.7795
X5.6732Y-3.874
X5.6732Y-3.9055
X5.6732Y-3.9685
X5.6736Y-3.622
X5.675Y-4.075
X5.675Y-4.095
X5.675Y-4.245
X5.678Y-2.282
X5.6806Y-3.1804
X5.6837Y-2.9822
X5.6837Y-3.006
X5.689Y-2.9473
X5.6899Y-4.2691
X5.69Y-4.3529
X5.69Y-2.1083
X5.692Y-2.924
X5.693Y-3.11
X5.694Y-2.341
X5.6957Y-3.1974
X5.7008Y-4.2047
X5.7047Y-3.5906
X5.7047Y-3.6535
X5.7047Y-3.685
X5.7047Y-3.7165
X5.7047Y-3.7795
X5.7047Y-3.811
X5.7047Y-3.8425
X5.7047Y-3.874
X5.7047Y-3.9055
X5.7047Y-3.937
X5.7049Y-3.622
X5.705Y-3.4889
X5.7083Y-3.4264
X5.709Y-3.129
X5.719Y-2.205
X5.7205Y-4.1693
X5.7205Y-4.2047
X5.7211Y-3.4568
X5.725Y-2.1083
X5.726Y-2.343
X5.735Y-2.5993
X5.7362Y-3.5906
X5.7362Y-3.6535
X5.7362Y-3.685
X5.7362Y-3.7165
X5.7362Y-3.748
X5.7362Y-3.7795
X5.7362Y-3.874
X5.7362Y-3.9055
X5.7362Y-3.937
X5.7362Y-4.2283
X5.7362Y-3.811
X5.7362Y-3.8425
X5.7363Y-3.622
X5.7365Y-3.4882
X5.7375Y-2.575
X5.74Y-2.221
X5.74Y-2.376
X5.746Y-2.738
X5.752Y-4.0394
X5.7521Y-3.5236
X5.755Y-2.1083
X5.76Y-2.342
X5.7601Y-2.3654
X5.7677Y-3.5906
X5.7677Y-3.622
X5.7677Y-3.6535
X5.7677Y-3.685
X5.7677Y-3.7165
X5.7677Y-3.748
X5.7677Y-3.7795
X5.7677Y-3.811
X5.7677Y-3.8425
X5.7677Y-3.874
X5.7677Y-3.9055
X5.7677Y-3.937
X5.7677Y-3.9684
X5.7678Y-3.4882
X5.77Y-2.198
X5.771Y-2.9165
X5.783Y-3.217
X5.7835Y-3.1614
X5.7835Y-3.2402
X5.7835Y-3.3189
X5.7835Y-3.3425
X5.7835Y-4.0394
X5.785Y-2.1083
X5.792Y-2.204
X5.7991Y-3.4563
X5.7992Y-3.5906
X5.7992Y-3.622
X5.7992Y-3.6535
X5.7992Y-3.685
X5.7992Y-3.748
X5.7992Y-3.7795
X5.7992Y-3.811
X5.7992Y-3.8425
X5.7992Y-3.874
X5.7992Y-3.9055
X5.7992Y-3.9369
X5.7992Y-3.9684
X5.7993Y-3.4882
X5.805Y-4.23
X5.815Y-2.1083
X5.8306Y-3.4882
X5.8306Y-3.454
X5.8307Y-3.685
X5.8307Y-3.748
X5.845Y-2.1083
X5.8459Y-3.3466
X5.8557Y-2.991
X5.856Y-2.963
X5.8619Y-3.4538
X5.8622Y-3.4882
X5.8661Y-3.6378
X5.8661Y-3.8898
X5.8661Y-4.0557
X5.874Y-2.943
X5.875Y-2.1083
X5.882Y-3.185
X5.8821Y-3.2398
X5.8858Y-3.374
X5.8858Y-3.3937
X5.887Y-3.331
X5.9095Y-3.4883
X5.9119Y-3.4572
X5.9133Y-3.2047
X5.9134Y-4.1614
X5.9134Y-4.1811
X5.9134Y-3.2398
X5.925Y-2.1083
X5.927Y-2.959
X5.93Y-2.982
X5.9448Y-3.458
X5.9448Y-3.4863
X5.9465Y-3.896
X5.9488Y-3.5236
X5.9488Y-3.6299
X5.9488Y-3.6457
X5.9488Y-3.8307
X5.9488Y-3.8661
X5.9491Y-3.7993
X5.9735Y-3.86
X5.9744Y-3.6107
X5.9745Y-3.8287
X5.9764Y-3.7973
X5.979Y-3.8936
X5.9799Y-2.7569
X5.98Y-2.426
X5.98Y-4.051
X5.9803Y-3.4764
X5.9873Y-2.951
X5.9882Y-3.4252
X5.9882Y-3.4528
X5.99Y-3.
X5.992Y-4.019
X6.003Y-4.051
X6.004Y-2.195
X6.0148Y-4.0192
X6.0236Y-3.7047
X6.0349Y-3.9624
X6.038Y-2.198
X6.038Y-3.996
X6.049Y-3.8947
X6.05Y-2.259
X6.058Y-3.9632
X6.06Y-3.995
X6.061Y-2.198
X6.062Y-2.714
X6.081Y-3.9632
X6.088Y-2.194
X6.102Y-2.704
X6.113Y-2.195
X6.12Y-3.06
X6.126Y-2.387
X6.1357Y-3.08
X6.144Y-2.21
X6.1468Y-2.4557
X6.149Y-2.261
X6.1507Y-3.1
X6.164Y-4.032
X6.168Y-2.215
X6.174Y-2.706
X6.174Y-4.009
X6.18Y-2.387
X6.184Y-2.592
X6.19Y-4.113
X6.199Y-4.076
X6.2Y-2.705
X6.203Y-2.387
X6.205Y-2.581
X6.207Y-2.215
X6.2169Y-4.0921
X6.222Y-4.052
X6.235Y-2.565
X6.246Y-4.052
X6.249Y-3.821
X6.25Y-2.705
X6.255Y-2.214
X6.258Y-4.004
X6.259Y-3.76
X6.264Y-4.034
X6.278Y-2.267
X6.2843Y-4.0502
X6.2987Y-2.4535
X6.3Y-2.705
X6.308Y-3.864
X6.3086Y-3.6486
X6.3118Y-3.6847
X6.3249Y-3.8137
X6.3275Y-3.585
X6.328Y-2.267
X6.335Y-3.72
X6.3473Y-3.8207
X6.3497Y-2.4535
X6.35Y-2.705
X6.356Y-3.8807
X6.37Y-3.7606
X6.378Y-3.806
X6.378Y-2.267
X6.382Y-3.669
X6.4Y-2.207
X6.4Y-2.45
X6.402Y-3.806
X6.4037Y-3.742
X6.404Y-3.856
X6.4125Y-3.685
X6.426Y-3.806
X6.428Y-2.268
X6.43Y-3.85
X6.44Y-3.68
X6.448Y-2.737
X6.449Y-2.7053
X6.45Y-3.806
X6.4506Y-2.4506
X6.454Y-2.207
X6.46Y-3.83
X6.475Y-2.2627
X6.484Y-2.739
X6.495Y-3.785
X6.5Y-2.207
X6.509Y-2.74
X6.525Y-2.2627
X6.538Y-2.759
X6.55Y-2.207
X6.55Y-2.45
X6.55Y-2.5436
X6.55Y-2.701
X6.592Y-2.547
X6.6Y-2.425
X6.6Y-2.207
X6.601Y-2.379
X6.616Y-2.547
X6.617Y-2.605
X6.625Y-2.45
X6.631Y-2.362
X6.65Y-2.207
X6.659Y-2.549
X6.662Y-2.2313
X6.672Y-2.447
X6.698Y-2.394
X6.7Y-2.702
X6.79Y-2.7717
X6.79Y-2.811
X6.79Y-2.8504
X6.7905Y-2.1911
X6.8Y-2.211
X6.8Y-2.441
X6.823Y-2.683
X6.85Y-2.441
X6.874Y-2.683
X6.885Y-2.1083
X6.92Y-2.145
X6.925Y-2.1083
X6.955Y-2.515
X6.97Y-2.11
X6.975Y-2.495
X7.005Y-4.29
T2
X4.5626Y-2.5194
X4.5626Y-2.4744
X4.5626Y-2.6063
X4.5626Y-2.6811
X4.5626Y-2.7444
X4.563Y-2.126
X4.563Y-2.2835
X4.563Y-2.1693
X4.563Y-2.4016
X4.563Y-2.3425
X4.563Y-2.2205
X4.575Y-3.325
X4.575Y-4.1
X4.575Y-4.15
X4.575Y-4.2
X4.575Y-4.25
X4.575Y-4.3
X4.575Y-4.35
X4.575Y-4.4
X4.575Y-4.45
X4.6142Y-2.2835
X4.6142Y-2.3307
X4.6142Y-2.3819
X4.6142Y-2.6339
X4.6142Y-2.6811
X4.622Y-4.1496
X4.6457Y-2.7165
X4.655Y-3.9621
X4.685Y-3.9921
X4.7Y-2.26
X4.7Y-2.36
X4.7Y-2.44
X4.7Y-2.605
X4.72Y-4.3724
X4.7205Y-4.0276
X4.74Y-2.26
X4.743Y-2.36
X4.75Y-2.605
X4.7559Y-4.063
X4.775Y-4.3724
X4.7874Y-4.0945
X4.7874Y-4.1457
X4.7874Y-4.2047
X4.7874Y-4.2717
X4.8Y-2.205
X4.8Y-2.44
X4.92Y-4.045
X4.9206Y-4.0942
X4.9616Y-4.0445
X4.9997Y-4.6822
X5.Y-4.635
X5.01Y-4.045
X5.0603Y-2.9055
X5.0603Y-2.9449
X5.0605Y-4.0445
X5.0716Y-4.3423
X5.0975Y-4.39
X5.1099Y-4.0444
X5.1124Y-4.0969
X5.1259Y-4.2407
X5.1491Y-4.0945
X5.15Y-4.45
X5.15Y-4.635
X5.15Y-4.68
X5.1791Y-4.2423
X5.1858Y-4.094
X5.2Y-4.4595
X5.2002Y-4.5
X5.201Y-4.55
X5.215Y-4.68
X5.234Y-4.306
X5.2369Y-4.3487
X5.2534Y-4.5499
X5.3Y-4.68
X5.3064Y-4.3936
X5.34Y-4.275
X5.41Y-4.43
X5.41Y-4.49
X5.41Y-4.6
X5.41Y-4.68
X5.62Y-4.6
X5.62Y-4.68
X5.7666Y-4.385
X5.825Y-4.285
X5.825Y-4.325
X5.825Y-4.6
X5.825Y-4.68
X5.86Y-2.2855
X5.86Y-2.325
X5.86Y-2.635
X5.86Y-2.68
X5.86Y-2.745
X5.8661Y-4.1689
X5.875Y-4.68
X5.91Y-2.4355
X5.925Y-4.6
X5.925Y-4.68
X5.9493Y-2.6013
X5.9495Y-2.4356
X5.975Y-2.2855
X5.975Y-2.33
X5.975Y-4.175
X5.979Y-4.575
X6.Y-2.601
X6.015Y-4.68
X6.025Y-4.175
X6.0428Y-4.4727
X6.061Y-2.432
X6.075Y-4.175
X6.075Y-4.3
X6.075Y-4.35
X6.075Y-4.4
X6.125Y-4.175
X6.15Y-4.4
X6.15Y-4.45
X6.175Y-4.225
X6.225Y-4.25
X6.225Y-4.334
X6.225Y-4.4
X6.225Y-4.45
X6.305Y-3.9328
X6.305Y-4.009
X6.31Y-3.19
X6.31Y-3.29
X6.31Y-3.41
X6.31Y-3.52
X6.325Y-4.25
X6.325Y-4.334
X6.35Y-4.45
X6.35Y-4.56
X6.35Y-4.67
X6.353Y-3.963
X6.353Y-4.009
X6.379Y-3.109
X6.38Y-3.19
X6.38Y-3.29
X6.38Y-3.35
X6.38Y-3.41
X6.38Y-3.52
X6.394Y-2.817
X6.394Y-2.879
X6.394Y-4.103
X6.42Y-4.25
X6.425Y-4.335
X6.45Y-4.45
X6.45Y-4.56
X6.45Y-4.67
X6.461Y-4.037
X6.461Y-4.103
X6.47Y-3.107
X6.47Y-3.19
X6.47Y-3.29
X6.47Y-3.35
X6.47Y-3.41
X6.471Y-3.022
X6.52Y-3.975
X6.52Y-4.037
X6.52Y-4.103
X6.52Y-4.25
X6.52Y-4.334
X6.549Y-3.023
X6.549Y-3.107
X6.55Y-3.19
X6.55Y-3.29
X6.55Y-3.35
X6.55Y-4.45
X6.55Y-4.56
X6.55Y-4.67
X6.585Y-4.036
X6.585Y-4.103
X6.615Y-3.19
X6.615Y-3.73
X6.62Y-2.881
X6.63Y-4.56
X6.65Y-4.67
X6.66Y-2.842
X6.694Y-2.808
X6.955Y-3.1
X6.955Y-3.15
X6.96Y-3.34
X6.96Y-4.14
X6.96Y-3.94
X6.96Y-3.44
X6.96Y-3.54
X6.96Y-3.64
X6.96Y-3.74
X6.96Y-3.84
X6.96Y-4.04
X7.05Y-3.339
X7.05Y-3.941
X7.05Y-4.1405
X7.05Y-4.2395
X7.05Y-2.9
X7.05Y-2.95
X7.05Y-3.05
X7.05Y-3.15
X7.05Y-3.24
X7.05Y-3.441
X7.05Y-3.541
X7.05Y-3.7395
X7.05Y-3.8415
X7.05Y-4.34
X7.05Y-4.575
X7.05Y-3.6415
X7.05Y-4.04
X7.0505Y-4.4405
T3
X4.95Y-3.175
X5.05Y-3.175
X6.75Y-2.94
X6.75Y-3.04
X6.75Y-3.14
X6.75Y-3.24
X6.75Y-3.34
X6.75Y-3.44
X6.75Y-3.54
X6.75Y-3.64
X6.75Y-3.74
X6.75Y-3.84
X6.75Y-3.94
X6.75Y-4.04
X6.75Y-4.14
X6.75Y-4.24
X6.75Y-4.34
X6.75Y-4.44
X6.75Y-4.54
X6.75Y-4.67
X6.85Y-2.94
X6.85Y-3.04
X6.85Y-3.14
X6.85Y-3.24
X6.85Y-3.34
X6.85Y-3.44
X6.85Y-3.54
X6.85Y-3.64
X6.85Y-3.74
X6.85Y-3.84
X6.85Y-3.94
X6.85Y-4.04
X6.85Y-4.14
X6.85Y-4.24
X6.85Y-4.34
X6.85Y-4.44
X6.85Y-4.54
X6.85Y-4.67
X7.035Y-2.15
X7.035Y-2.25
X7.035Y-2.35
X7.035Y-2.45
X7.035Y-2.55
X7.035Y-2.65
T4
X4.655Y-3.49
X4.655Y-3.59
X4.655Y-3.69
X4.655Y-3.79
X4.655Y-3.89
X4.755Y-3.49
X4.755Y-3.59
X4.755Y-3.69
X4.755Y-3.79
X4.755Y-3.89
T3
X4.6241Y-4.2189G85X4.6241Y-4.337
G05
X4.691Y-4.4532G85X4.8091Y-4.4532
G05
X4.88Y-4.2189G85X4.88Y-4.337
G05
T0
M30
