G04 #@! TF.FileFunction,Soldermask,Bot*
%FSLAX46Y46*%
G04 Gerber Fmt 4.6, Leading zero omitted, Abs format (unit mm)*
G04 Created by KiCad (PCBNEW 201610010949+7276~55~ubuntu14.04.1-) date Wed Oct  5 10:29:21 2016*
%MOMM*%
%LPD*%
G01*
G04 APERTURE LIST*
%ADD10C,0.100000*%
%ADD11C,0.254000*%
%ADD12R,1.778000X1.778000*%
%ADD13C,0.801600*%
%ADD14C,1.254000*%
%ADD15R,0.601600X0.651600*%
%ADD16C,0.601600*%
%ADD17R,1.117600X1.117600*%
%ADD18C,1.700000*%
%ADD19R,1.700000X1.700000*%
%ADD20R,0.651600X0.601600*%
%ADD21C,1.901600*%
%ADD22R,1.851600X1.851600*%
%ADD23C,3.300000*%
%ADD24O,4.601600X1.601600*%
%ADD25O,1.601600X4.601600*%
%ADD26R,1.270000X1.701800*%
%ADD27C,1.879600*%
%ADD28R,1.879600X1.879600*%
%ADD29C,1.778000*%
G04 APERTURE END LIST*
D10*
D11*
X115000000Y-120000000D02*
X115000000Y-53000000D01*
X180000000Y-120000000D02*
X115000000Y-120000000D01*
X180000000Y-53000000D02*
X180000000Y-120000000D01*
X115000000Y-53000000D02*
X180000000Y-53000000D01*
D12*
X171450000Y-118618000D03*
D13*
X150495000Y-65405000D03*
X173355000Y-65405000D03*
X118745000Y-65405000D03*
X141605000Y-65405000D03*
X150495000Y-56515000D03*
X173355000Y-56515000D03*
X118745000Y-56515000D03*
X141605000Y-56515000D03*
D14*
X122555000Y-118110000D03*
D15*
X145008000Y-94800000D03*
X143992000Y-94800000D03*
X141592000Y-96000000D03*
X142608000Y-96000000D03*
D16*
X143559210Y-92459210D03*
D10*
G36*
X143116137Y-92476888D02*
X143576888Y-92016137D01*
X144002283Y-92441532D01*
X143541532Y-92902283D01*
X143116137Y-92476888D01*
X143116137Y-92476888D01*
G37*
D16*
X142840790Y-91740790D03*
D10*
G36*
X143283863Y-91723112D02*
X142823112Y-92183863D01*
X142397717Y-91758468D01*
X142858468Y-91297717D01*
X143283863Y-91723112D01*
X143283863Y-91723112D01*
G37*
D17*
X141986000Y-104775000D03*
X141986000Y-102997000D03*
D18*
X118237000Y-88646000D03*
X120777000Y-88646000D03*
X118237000Y-91186000D03*
X120777000Y-91186000D03*
X118237000Y-93726000D03*
X120777000Y-93726000D03*
X118237000Y-96266000D03*
X120777000Y-96266000D03*
X118237000Y-98806000D03*
D19*
X120777000Y-98806000D03*
D15*
X147008000Y-103000000D03*
X145992000Y-103000000D03*
X142792000Y-90000000D03*
X143808000Y-90000000D03*
D20*
X137300000Y-95708000D03*
X137300000Y-94692000D03*
X146900000Y-90808000D03*
X146900000Y-89792000D03*
X139200000Y-90808000D03*
X139200000Y-89792000D03*
D15*
X138792000Y-103000000D03*
X139808000Y-103000000D03*
X143192000Y-103000000D03*
X144208000Y-103000000D03*
D20*
X143300000Y-98108000D03*
X143300000Y-97092000D03*
X137300000Y-92692000D03*
X137300000Y-93708000D03*
X138100000Y-93708000D03*
X138100000Y-92692000D03*
D21*
X171450000Y-100076000D03*
X171450000Y-102616000D03*
X173990000Y-102616000D03*
X173990000Y-100076000D03*
X171450000Y-107696000D03*
X173990000Y-110236000D03*
X173990000Y-107696000D03*
X171450000Y-110236000D03*
X171450000Y-115316000D03*
X173990000Y-112776000D03*
X171450000Y-112776000D03*
X173990000Y-115316000D03*
X171450000Y-105156000D03*
X173990000Y-105156000D03*
X171450000Y-97536000D03*
X173990000Y-97536000D03*
X171450000Y-94996000D03*
X173990000Y-94996000D03*
X171450000Y-92456000D03*
X173990000Y-92456000D03*
X171450000Y-89916000D03*
X173990000Y-89916000D03*
X171450000Y-87376000D03*
X173990000Y-87376000D03*
X173990000Y-84836000D03*
X171450000Y-84836000D03*
X173990000Y-82296000D03*
X171450000Y-82296000D03*
X173990000Y-79756000D03*
X171450000Y-79756000D03*
X173990000Y-77216000D03*
X171450000Y-77216000D03*
X173990000Y-74676000D03*
D22*
X171450000Y-74676000D03*
D15*
X149492000Y-92400000D03*
X150508000Y-92400000D03*
X145008000Y-95600000D03*
X143992000Y-95600000D03*
X145008000Y-96400000D03*
X143992000Y-96400000D03*
D23*
X118000000Y-117000000D03*
X118000000Y-73000000D03*
X157000000Y-73000000D03*
X157000000Y-117000000D03*
D24*
X120652000Y-113111000D03*
D25*
X117452000Y-108661000D03*
X123952000Y-108661000D03*
D26*
X124714000Y-101219000D03*
X123190000Y-101219000D03*
X123190000Y-101219000D03*
D20*
X137300000Y-100308000D03*
X137300000Y-99292000D03*
D17*
X144189000Y-101700000D03*
X142411000Y-101700000D03*
D15*
X142792000Y-99200000D03*
X143808000Y-99200000D03*
D20*
X147700000Y-93892000D03*
X147700000Y-94908000D03*
D16*
X141740790Y-94440790D03*
D10*
G36*
X142183863Y-94423112D02*
X141723112Y-94883863D01*
X141297717Y-94458468D01*
X141758468Y-93997717D01*
X142183863Y-94423112D01*
X142183863Y-94423112D01*
G37*
D16*
X142459210Y-95159210D03*
D10*
G36*
X142016137Y-95176888D02*
X142476888Y-94716137D01*
X142902283Y-95141532D01*
X142441532Y-95602283D01*
X142016137Y-95176888D01*
X142016137Y-95176888D01*
G37*
D16*
X144859210Y-98359210D03*
D10*
G36*
X144416137Y-98376888D02*
X144876888Y-97916137D01*
X145302283Y-98341532D01*
X144841532Y-98802283D01*
X144416137Y-98376888D01*
X144416137Y-98376888D01*
G37*
D16*
X144140790Y-97640790D03*
D10*
G36*
X144583863Y-97623112D02*
X144123112Y-98083863D01*
X143697717Y-97658468D01*
X144158468Y-97197717D01*
X144583863Y-97623112D01*
X144583863Y-97623112D01*
G37*
D16*
X141740790Y-97559210D03*
D10*
G36*
X141723112Y-97116137D02*
X142183863Y-97576888D01*
X141758468Y-98002283D01*
X141297717Y-97541532D01*
X141723112Y-97116137D01*
X141723112Y-97116137D01*
G37*
D16*
X142459210Y-96840790D03*
D10*
G36*
X142476888Y-97283863D02*
X142016137Y-96823112D01*
X142441532Y-96397717D01*
X142902283Y-96858468D01*
X142476888Y-97283863D01*
X142476888Y-97283863D01*
G37*
D15*
X138008000Y-103000000D03*
X136992000Y-103000000D03*
D20*
X143300000Y-94292000D03*
X143300000Y-95308000D03*
D15*
X149492000Y-98800000D03*
X150508000Y-98800000D03*
D17*
X136011000Y-104200000D03*
X137789000Y-104200000D03*
D27*
X178689000Y-62230000D03*
X178689000Y-59690000D03*
X178689000Y-57150000D03*
D28*
X178689000Y-54610000D03*
D27*
X178689000Y-64770000D03*
X178689000Y-67310000D03*
X128270000Y-80645000D03*
D28*
X125730000Y-80645000D03*
D20*
X138300000Y-89792000D03*
X138300000Y-90808000D03*
D29*
X173990000Y-118618000D03*
D14*
X178435000Y-71120000D03*
X178435000Y-118110000D03*
M02*
