G04 #@! TF.FileFunction,Soldermask,Top*
%FSLAX46Y46*%
G04 Gerber Fmt 4.6, Leading zero omitted, Abs format (unit mm)*
G04 Created by KiCad (PCBNEW 201610010949+7276~55~ubuntu14.04.1-) date Wed Oct  5 10:29:21 2016*
%MOMM*%
%LPD*%
G01*
G04 APERTURE LIST*
%ADD10C,0.100000*%
%ADD11C,0.254000*%
%ADD12R,1.778000X1.778000*%
%ADD13R,1.701600X3.601600*%
%ADD14R,3.601600X1.701600*%
%ADD15R,1.625600X1.371600*%
%ADD16C,0.801600*%
%ADD17R,0.801600X1.901600*%
%ADD18R,1.778000X2.286000*%
%ADD19R,0.501600X1.601600*%
%ADD20R,0.651600X0.601600*%
%ADD21R,1.030000X1.060000*%
%ADD22R,0.701600X2.301600*%
%ADD23R,1.501600X1.101600*%
%ADD24C,1.700000*%
%ADD25R,1.700000X1.700000*%
%ADD26R,0.601600X0.651600*%
%ADD27C,1.901600*%
%ADD28R,1.851600X1.851600*%
%ADD29R,1.117600X1.117600*%
%ADD30R,1.371600X1.625600*%
%ADD31R,2.101600X2.301600*%
%ADD32R,2.801600X1.901600*%
%ADD33R,1.060000X1.030000*%
%ADD34R,0.651600X1.301600*%
%ADD35R,1.301600X0.651600*%
%ADD36C,3.300000*%
%ADD37C,1.254000*%
%ADD38O,4.601600X1.601600*%
%ADD39O,1.601600X4.601600*%
%ADD40C,1.879600*%
%ADD41R,1.879600X1.879600*%
%ADD42C,1.778000*%
%ADD43C,0.500000*%
%ADD44C,0.600000*%
G04 APERTURE END LIST*
D10*
D11*
X115000000Y-120000000D02*
X115000000Y-53000000D01*
X180000000Y-120000000D02*
X115000000Y-120000000D01*
X180000000Y-53000000D02*
X180000000Y-120000000D01*
X115000000Y-53000000D02*
X180000000Y-53000000D01*
D12*
X171450000Y-118618000D03*
D13*
X137865000Y-109728000D03*
X140265000Y-109728000D03*
D14*
X127282000Y-104060000D03*
X127282000Y-106460000D03*
D15*
X131064000Y-74295000D03*
X122936000Y-74295000D03*
D16*
X150495000Y-65405000D03*
D17*
X161290000Y-63373000D03*
X161290000Y-67437000D03*
X160020000Y-63373000D03*
X160020000Y-67437000D03*
X158750000Y-63373000D03*
X158750000Y-67437000D03*
X157480000Y-63373000D03*
X157480000Y-67437000D03*
X156210000Y-63373000D03*
X156210000Y-67437000D03*
X154940000Y-63373000D03*
X154940000Y-67437000D03*
X153670000Y-63373000D03*
X153670000Y-67437000D03*
X152400000Y-63373000D03*
X152400000Y-67437000D03*
X151130000Y-63373000D03*
X151130000Y-67437000D03*
X149860000Y-63373000D03*
X149860000Y-67437000D03*
X162560000Y-67437000D03*
X162560000Y-63373000D03*
X163830000Y-67437000D03*
X163830000Y-63373000D03*
X165100000Y-67437000D03*
X165100000Y-63373000D03*
X166370000Y-67437000D03*
X166370000Y-63373000D03*
X167640000Y-67437000D03*
X167640000Y-63373000D03*
X168910000Y-67437000D03*
X168910000Y-63373000D03*
X170180000Y-67437000D03*
X170180000Y-63373000D03*
X171450000Y-67437000D03*
X171450000Y-63373000D03*
X172720000Y-67437000D03*
X172720000Y-63373000D03*
X173990000Y-67437000D03*
X173990000Y-63373000D03*
D16*
X173355000Y-65405000D03*
X118745000Y-65405000D03*
D17*
X129540000Y-63373000D03*
X129540000Y-67437000D03*
X128270000Y-63373000D03*
X128270000Y-67437000D03*
X127000000Y-63373000D03*
X127000000Y-67437000D03*
X125730000Y-63373000D03*
X125730000Y-67437000D03*
X124460000Y-63373000D03*
X124460000Y-67437000D03*
X123190000Y-63373000D03*
X123190000Y-67437000D03*
X121920000Y-63373000D03*
X121920000Y-67437000D03*
X120650000Y-63373000D03*
X120650000Y-67437000D03*
X119380000Y-63373000D03*
X119380000Y-67437000D03*
X118110000Y-63373000D03*
X118110000Y-67437000D03*
X130810000Y-67437000D03*
X130810000Y-63373000D03*
X132080000Y-67437000D03*
X132080000Y-63373000D03*
X133350000Y-67437000D03*
X133350000Y-63373000D03*
X134620000Y-67437000D03*
X134620000Y-63373000D03*
X135890000Y-67437000D03*
X135890000Y-63373000D03*
X137160000Y-67437000D03*
X137160000Y-63373000D03*
X138430000Y-67437000D03*
X138430000Y-63373000D03*
X139700000Y-67437000D03*
X139700000Y-63373000D03*
X140970000Y-67437000D03*
X140970000Y-63373000D03*
X142240000Y-67437000D03*
X142240000Y-63373000D03*
D16*
X141605000Y-65405000D03*
X150495000Y-56515000D03*
D17*
X161290000Y-54483000D03*
X161290000Y-58547000D03*
X160020000Y-54483000D03*
X160020000Y-58547000D03*
X158750000Y-54483000D03*
X158750000Y-58547000D03*
X157480000Y-54483000D03*
X157480000Y-58547000D03*
X156210000Y-54483000D03*
X156210000Y-58547000D03*
X154940000Y-54483000D03*
X154940000Y-58547000D03*
X153670000Y-54483000D03*
X153670000Y-58547000D03*
X152400000Y-54483000D03*
X152400000Y-58547000D03*
X151130000Y-54483000D03*
X151130000Y-58547000D03*
X149860000Y-54483000D03*
X149860000Y-58547000D03*
X162560000Y-58547000D03*
X162560000Y-54483000D03*
X163830000Y-58547000D03*
X163830000Y-54483000D03*
X165100000Y-58547000D03*
X165100000Y-54483000D03*
X166370000Y-58547000D03*
X166370000Y-54483000D03*
X167640000Y-58547000D03*
X167640000Y-54483000D03*
X168910000Y-58547000D03*
X168910000Y-54483000D03*
X170180000Y-58547000D03*
X170180000Y-54483000D03*
X171450000Y-58547000D03*
X171450000Y-54483000D03*
X172720000Y-58547000D03*
X172720000Y-54483000D03*
X173990000Y-58547000D03*
X173990000Y-54483000D03*
D16*
X173355000Y-56515000D03*
X118745000Y-56515000D03*
D17*
X129540000Y-54483000D03*
X129540000Y-58547000D03*
X128270000Y-54483000D03*
X128270000Y-58547000D03*
X127000000Y-54483000D03*
X127000000Y-58547000D03*
X125730000Y-54483000D03*
X125730000Y-58547000D03*
X124460000Y-54483000D03*
X124460000Y-58547000D03*
X123190000Y-54483000D03*
X123190000Y-58547000D03*
X121920000Y-54483000D03*
X121920000Y-58547000D03*
X120650000Y-54483000D03*
X120650000Y-58547000D03*
X119380000Y-54483000D03*
X119380000Y-58547000D03*
X118110000Y-54483000D03*
X118110000Y-58547000D03*
X130810000Y-58547000D03*
X130810000Y-54483000D03*
X132080000Y-58547000D03*
X132080000Y-54483000D03*
X133350000Y-58547000D03*
X133350000Y-54483000D03*
X134620000Y-58547000D03*
X134620000Y-54483000D03*
X135890000Y-58547000D03*
X135890000Y-54483000D03*
X137160000Y-58547000D03*
X137160000Y-54483000D03*
X138430000Y-58547000D03*
X138430000Y-54483000D03*
X139700000Y-58547000D03*
X139700000Y-54483000D03*
X140970000Y-58547000D03*
X140970000Y-54483000D03*
X142240000Y-58547000D03*
X142240000Y-54483000D03*
D16*
X141605000Y-56515000D03*
D18*
X124188000Y-118110000D03*
X128542000Y-118110000D03*
D19*
X150900000Y-83300000D03*
X150100000Y-83300000D03*
X149300000Y-83300000D03*
X148500000Y-83300000D03*
X147700000Y-83300000D03*
X146900000Y-83300000D03*
X146100000Y-83300000D03*
X145300000Y-83300000D03*
X144500000Y-83300000D03*
X143700000Y-83300000D03*
X142900000Y-83300000D03*
X142100000Y-83300000D03*
X141300000Y-83300000D03*
X140500000Y-83300000D03*
X139700000Y-83300000D03*
X138900000Y-83300000D03*
X138100000Y-83300000D03*
X137300000Y-83300000D03*
X136500000Y-83300000D03*
X135700000Y-83300000D03*
X134900000Y-83300000D03*
X134100000Y-83300000D03*
X134100000Y-71700000D03*
X134900000Y-71700000D03*
X135700000Y-71700000D03*
X136500000Y-71700000D03*
X137300000Y-71700000D03*
X138100000Y-71700000D03*
X138900000Y-71700000D03*
X139700000Y-71700000D03*
X140500000Y-71700000D03*
X141300000Y-71700000D03*
X142100000Y-71700000D03*
X142900000Y-71700000D03*
X143700000Y-71700000D03*
X144500000Y-71700000D03*
X145300000Y-71700000D03*
X146100000Y-71700000D03*
X146900000Y-71700000D03*
X147700000Y-71700000D03*
X148500000Y-71700000D03*
X149300000Y-71700000D03*
X150100000Y-71700000D03*
X150900000Y-71700000D03*
D20*
X142494000Y-111125000D03*
X142494000Y-112141000D03*
D21*
X118646000Y-76939000D03*
X120424000Y-76939000D03*
D20*
X129667000Y-88646000D03*
X129667000Y-87630000D03*
D22*
X125885000Y-90595000D03*
X127155000Y-90595000D03*
X128425000Y-90595000D03*
X129695000Y-90595000D03*
X129695000Y-97065000D03*
X128425000Y-97065000D03*
X127155000Y-97065000D03*
X125885000Y-97065000D03*
D23*
X131699000Y-102484000D03*
X131699000Y-98684000D03*
D24*
X118237000Y-88646000D03*
X120777000Y-88646000D03*
X118237000Y-91186000D03*
X120777000Y-91186000D03*
X118237000Y-93726000D03*
X120777000Y-93726000D03*
X118237000Y-96266000D03*
X120777000Y-96266000D03*
X118237000Y-98806000D03*
D25*
X120777000Y-98806000D03*
D26*
X141992000Y-84700000D03*
X143008000Y-84700000D03*
D27*
X171450000Y-100076000D03*
X171450000Y-102616000D03*
X173990000Y-102616000D03*
X173990000Y-100076000D03*
X171450000Y-107696000D03*
X173990000Y-110236000D03*
X173990000Y-107696000D03*
X171450000Y-110236000D03*
X171450000Y-115316000D03*
X173990000Y-112776000D03*
X171450000Y-112776000D03*
X173990000Y-115316000D03*
X171450000Y-105156000D03*
X173990000Y-105156000D03*
X171450000Y-97536000D03*
X173990000Y-97536000D03*
X171450000Y-94996000D03*
X173990000Y-94996000D03*
X171450000Y-92456000D03*
X173990000Y-92456000D03*
X171450000Y-89916000D03*
X173990000Y-89916000D03*
X171450000Y-87376000D03*
X173990000Y-87376000D03*
X173990000Y-84836000D03*
X171450000Y-84836000D03*
X173990000Y-82296000D03*
X171450000Y-82296000D03*
X173990000Y-79756000D03*
X171450000Y-79756000D03*
X173990000Y-77216000D03*
X171450000Y-77216000D03*
X173990000Y-74676000D03*
D28*
X171450000Y-74676000D03*
D29*
X130810000Y-113792000D03*
X130810000Y-115570000D03*
X133858000Y-109728000D03*
X135636000Y-109728000D03*
D20*
X125885000Y-88623000D03*
X125885000Y-87607000D03*
X144526000Y-108966000D03*
X144526000Y-109982000D03*
D15*
X129060000Y-113261000D03*
X129060000Y-115293000D03*
D30*
X125123000Y-115420000D03*
X127155000Y-115420000D03*
D29*
X130203000Y-105006000D03*
X130203000Y-106784000D03*
X140208000Y-112522000D03*
X138430000Y-112522000D03*
X131727000Y-105006000D03*
X131727000Y-106784000D03*
X140208000Y-114046000D03*
X138430000Y-114046000D03*
D20*
X143637000Y-111125000D03*
X143637000Y-112141000D03*
D26*
X143008000Y-70300000D03*
X141992000Y-70300000D03*
D21*
X118646000Y-82019000D03*
X120424000Y-82019000D03*
D31*
X146471000Y-109406000D03*
X151471000Y-109406000D03*
X151471000Y-113606000D03*
X146471000Y-113606000D03*
D32*
X126520000Y-113175000D03*
X126520000Y-108775000D03*
D21*
X118646000Y-79479000D03*
X120424000Y-79479000D03*
D33*
X122174000Y-115189000D03*
X122174000Y-116967000D03*
D26*
X126238000Y-71120000D03*
X125222000Y-71120000D03*
X127762000Y-71120000D03*
X128778000Y-71120000D03*
X115852000Y-82019000D03*
X116868000Y-82019000D03*
D20*
X125900000Y-100008000D03*
X125900000Y-98992000D03*
X131854000Y-108816000D03*
X131854000Y-109832000D03*
X131854000Y-111864000D03*
X131854000Y-110848000D03*
D26*
X136144000Y-114300000D03*
X135128000Y-114300000D03*
X133096000Y-114300000D03*
X134112000Y-114300000D03*
D20*
X125000000Y-98992000D03*
X125000000Y-100008000D03*
D26*
X148971000Y-107442000D03*
X147955000Y-107442000D03*
D20*
X127381000Y-88646000D03*
X127381000Y-87630000D03*
X122174000Y-118237000D03*
X122174000Y-119253000D03*
D26*
X115852000Y-79479000D03*
X116868000Y-79479000D03*
X115852000Y-76939000D03*
X116868000Y-76939000D03*
D20*
X142494000Y-108966000D03*
X142494000Y-109982000D03*
X143637000Y-108966000D03*
X143637000Y-109982000D03*
D26*
X147008000Y-70300000D03*
X145992000Y-70300000D03*
X149860000Y-107442000D03*
X150876000Y-107442000D03*
D34*
X130645000Y-109040000D03*
X129695000Y-109040000D03*
X128745000Y-109040000D03*
X130645000Y-111640000D03*
X128745000Y-111640000D03*
D35*
X136047000Y-113091000D03*
X136047000Y-112141000D03*
X136047000Y-111191000D03*
X133447000Y-113091000D03*
X133447000Y-111191000D03*
D36*
X118000000Y-117000000D03*
X118000000Y-73000000D03*
X157000000Y-73000000D03*
X157000000Y-117000000D03*
D37*
X122555000Y-71120000D03*
X178435000Y-71120000D03*
X178435000Y-118110000D03*
D15*
X132461000Y-117475000D03*
X140589000Y-117475000D03*
X152781000Y-117475000D03*
X144653000Y-117475000D03*
D38*
X120652000Y-113111000D03*
D39*
X117452000Y-108661000D03*
X123952000Y-108661000D03*
D29*
X142011000Y-87400000D03*
X143789000Y-87400000D03*
D40*
X178689000Y-62230000D03*
X178689000Y-59690000D03*
X178689000Y-57150000D03*
D41*
X178689000Y-54610000D03*
D40*
X178689000Y-64770000D03*
X178689000Y-67310000D03*
X128270000Y-80645000D03*
D41*
X125730000Y-80645000D03*
D20*
X128397000Y-87630000D03*
X128397000Y-88646000D03*
D29*
X142011000Y-85900000D03*
X143789000Y-85900000D03*
D26*
X173482000Y-69850000D03*
X172466000Y-69850000D03*
X173482000Y-70866000D03*
X172466000Y-70866000D03*
X173482000Y-71882000D03*
X172466000Y-71882000D03*
D42*
X173990000Y-118618000D03*
D43*
X148500000Y-102000000D03*
X147700000Y-102000000D03*
X146900000Y-102000000D03*
X146100000Y-102000000D03*
X145300000Y-102000000D03*
X144500000Y-102000000D03*
X143700000Y-102000000D03*
X142900000Y-102000000D03*
X142100000Y-102000000D03*
X141300000Y-102000000D03*
X140500000Y-102000000D03*
X139700000Y-102000000D03*
X138900000Y-102000000D03*
X138100000Y-102000000D03*
X137300000Y-102000000D03*
X136500000Y-102000000D03*
X136500000Y-101200000D03*
X137300000Y-101200000D03*
X138100000Y-101200000D03*
X138900000Y-101200000D03*
X139700000Y-101200000D03*
X140500000Y-101200000D03*
X141300000Y-101200000D03*
X142100000Y-101200000D03*
X142900000Y-101200000D03*
X143700000Y-101200000D03*
X144500000Y-101200000D03*
X145300000Y-101200000D03*
X146100000Y-101200000D03*
X146900000Y-101200000D03*
X147700000Y-101200000D03*
X148500000Y-101200000D03*
X148500000Y-100400000D03*
X147700000Y-100400000D03*
X146900000Y-100400000D03*
X146100000Y-100400000D03*
X145300000Y-100400000D03*
X144500000Y-100400000D03*
X143700000Y-100400000D03*
X142900000Y-100400000D03*
X142100000Y-100400000D03*
X141300000Y-100400000D03*
X140500000Y-100400000D03*
X139700000Y-100400000D03*
X138900000Y-100400000D03*
X138100000Y-100400000D03*
X137300000Y-100400000D03*
X136500000Y-100400000D03*
X136500000Y-99600000D03*
X137300000Y-99600000D03*
X138100000Y-99600000D03*
X138900000Y-99600000D03*
X139700000Y-99600000D03*
X140500000Y-99600000D03*
X141300000Y-99600000D03*
X142100000Y-99600000D03*
X142900000Y-99600000D03*
X143700000Y-99600000D03*
X144500000Y-99600000D03*
X145300000Y-99600000D03*
X146100000Y-99600000D03*
X146900000Y-99600000D03*
X147700000Y-99600000D03*
X148500000Y-99600000D03*
X136500000Y-98800000D03*
X137300000Y-98800000D03*
X138100000Y-98800000D03*
X138900000Y-98800000D03*
X139700000Y-98800000D03*
X140500000Y-98800000D03*
X141300000Y-98800000D03*
X142100000Y-98800000D03*
X142900000Y-98800000D03*
X143700000Y-98800000D03*
X144500000Y-98800000D03*
X145300000Y-98800000D03*
X146100000Y-98800000D03*
X146900000Y-98800000D03*
X147700000Y-98800000D03*
X148500000Y-98800000D03*
X148500000Y-98000000D03*
X147700000Y-98000000D03*
X146900000Y-98000000D03*
X146100000Y-98000000D03*
X145300000Y-98000000D03*
X144500000Y-98000000D03*
X143700000Y-98000000D03*
X142900000Y-98000000D03*
X142100000Y-98000000D03*
X141300000Y-98000000D03*
X140500000Y-98000000D03*
X139700000Y-98000000D03*
X138900000Y-98000000D03*
X138100000Y-98000000D03*
X137300000Y-98000000D03*
X136500000Y-98000000D03*
X148500000Y-97200000D03*
X147700000Y-97200000D03*
X146900000Y-97200000D03*
X146100000Y-97200000D03*
X145300000Y-97200000D03*
X144500000Y-97200000D03*
X143700000Y-97200000D03*
X142900000Y-97200000D03*
X142100000Y-97200000D03*
X141300000Y-97200000D03*
X140500000Y-97200000D03*
X139700000Y-97200000D03*
X138900000Y-97200000D03*
X138100000Y-97200000D03*
X137300000Y-97200000D03*
X136500000Y-97200000D03*
X136500000Y-96400000D03*
X137300000Y-96400000D03*
X138100000Y-96400000D03*
X138900000Y-96400000D03*
X139700000Y-96400000D03*
X140500000Y-96400000D03*
X141300000Y-96400000D03*
X142100000Y-96400000D03*
X142900000Y-96400000D03*
X143700000Y-96400000D03*
X144500000Y-96400000D03*
X145300000Y-96400000D03*
X146100000Y-96400000D03*
X146900000Y-96400000D03*
X147700000Y-96400000D03*
X148500000Y-96400000D03*
X148500000Y-95600000D03*
X147700000Y-95600000D03*
X146900000Y-95600000D03*
X146100000Y-95600000D03*
X145300000Y-95600000D03*
X144500000Y-95600000D03*
X143700000Y-95600000D03*
X142900000Y-95600000D03*
X142100000Y-95600000D03*
X141300000Y-95600000D03*
X140500000Y-95600000D03*
X139700000Y-95600000D03*
X138900000Y-95600000D03*
X138100000Y-95600000D03*
X137300000Y-95600000D03*
X136500000Y-95600000D03*
X136500000Y-94800000D03*
X137300000Y-94800000D03*
X138100000Y-94800000D03*
X138900000Y-94800000D03*
X139700000Y-94800000D03*
X140500000Y-94800000D03*
X141300000Y-94800000D03*
X142100000Y-94800000D03*
X142900000Y-94800000D03*
X143700000Y-94800000D03*
X144500000Y-94800000D03*
X145300000Y-94800000D03*
X146100000Y-94800000D03*
X146900000Y-94800000D03*
X147700000Y-94800000D03*
X148500000Y-94800000D03*
X148500000Y-94000000D03*
X147700000Y-94000000D03*
X146900000Y-94000000D03*
X146100000Y-94000000D03*
X145300000Y-94000000D03*
X144500000Y-94000000D03*
X143700000Y-94000000D03*
X142900000Y-94000000D03*
X142100000Y-94000000D03*
X141300000Y-94000000D03*
X140500000Y-94000000D03*
X139700000Y-94000000D03*
X138900000Y-94000000D03*
X138100000Y-94000000D03*
X137300000Y-94000000D03*
X136500000Y-94000000D03*
X136500000Y-93200000D03*
X137300000Y-93200000D03*
X138100000Y-93200000D03*
X138900000Y-93200000D03*
X139700000Y-93200000D03*
X140500000Y-93200000D03*
X141300000Y-93200000D03*
X142100000Y-93200000D03*
X142900000Y-93200000D03*
X143700000Y-93200000D03*
X144500000Y-93200000D03*
X145300000Y-93200000D03*
X146100000Y-93200000D03*
X146900000Y-93200000D03*
X147700000Y-93200000D03*
X148500000Y-93200000D03*
X148500000Y-92400000D03*
X147700000Y-92400000D03*
X146900000Y-92400000D03*
X146100000Y-92400000D03*
X145300000Y-92400000D03*
X144500000Y-92400000D03*
X143700000Y-92400000D03*
X142900000Y-92400000D03*
X142100000Y-92400000D03*
X141300000Y-92400000D03*
X140500000Y-92400000D03*
X139700000Y-92400000D03*
X138900000Y-92400000D03*
X138100000Y-92400000D03*
X137300000Y-92400000D03*
X136500000Y-92400000D03*
X136500000Y-91600000D03*
X137300000Y-91600000D03*
X138100000Y-91600000D03*
X138900000Y-91600000D03*
X139700000Y-91600000D03*
X140500000Y-91600000D03*
X141300000Y-91600000D03*
X142100000Y-91600000D03*
X142900000Y-91600000D03*
X143700000Y-91600000D03*
X144500000Y-91600000D03*
X145300000Y-91600000D03*
X146100000Y-91600000D03*
X146900000Y-91600000D03*
X147700000Y-91600000D03*
X148500000Y-91600000D03*
X148500000Y-90800000D03*
X147700000Y-90800000D03*
X146900000Y-90800000D03*
X146100000Y-90800000D03*
X145300000Y-90800000D03*
X144500000Y-90800000D03*
X143700000Y-90800000D03*
X142900000Y-90800000D03*
X142100000Y-90800000D03*
X141300000Y-90800000D03*
X140500000Y-90800000D03*
X139700000Y-90800000D03*
X138900000Y-90800000D03*
X138100000Y-90800000D03*
X137300000Y-90800000D03*
X136500000Y-90800000D03*
X136500000Y-90000000D03*
X137300000Y-90000000D03*
X138100000Y-90000000D03*
X138900000Y-90000000D03*
X139700000Y-90000000D03*
X140500000Y-90000000D03*
X141300000Y-90000000D03*
X142100000Y-90000000D03*
X142900000Y-90000000D03*
X143700000Y-90000000D03*
X144500000Y-90000000D03*
X145300000Y-90000000D03*
X146100000Y-90000000D03*
X146900000Y-90000000D03*
X147700000Y-90000000D03*
X148500000Y-90000000D03*
D44*
X149500000Y-89000000D03*
X135500000Y-89000000D03*
X135500000Y-103000000D03*
M02*
